<svg width="1291" height="472" viewBox="0 0 1291 472" fill="none" xmlns="http://www.w3.org/2000/svg">
<path d="M5.05988 217.215L-8.7738e-05 241.182L23.9665 246.242L29.0265 222.275L5.05988 217.215ZM283.513 465.229L282.881 468.161L283.513 465.229ZM731.013 101.729L731.304 98.7427L731.013 101.729ZM1025.51 272.229L1025.87 275.208L1025.51 272.229ZM1282.27 1.90735e-06L1259.28 8.47512L1267.76 31.4571L1290.74 22.982L1282.27 1.90735e-06ZM14.5132 231.729C11.9994 233.366 11.9995 233.366 11.9995 233.366C11.9995 233.366 11.9996 233.366 11.9997 233.366C11.9998 233.367 12 233.367 12.0001 233.367C12.0005 233.368 12.001 233.368 12.0017 233.369C12.003 233.371 12.0048 233.374 12.0072 233.378C12.0119 233.385 12.0188 233.396 12.0279 233.41C12.0459 233.437 12.0725 233.478 12.1076 233.531C12.1778 233.638 12.282 233.797 12.4196 234.005C12.6947 234.421 13.1035 235.037 13.6415 235.839C14.7177 237.442 16.3111 239.792 18.3871 242.787L20.8526 241.078L23.3181 239.369C21.2604 236.4 19.6841 234.076 18.6239 232.496C18.0939 231.706 17.6929 231.102 17.4253 230.697C17.2914 230.494 17.191 230.342 17.1244 230.24C17.0911 230.189 17.0663 230.151 17.0501 230.127C17.0419 230.114 17.0359 230.105 17.0321 230.099C17.0302 230.096 17.0288 230.094 17.0279 230.093C17.0275 230.092 17.0272 230.092 17.027 230.091C17.0269 230.091 17.0269 230.091 17.0269 230.091C17.0269 230.091 17.0269 230.091 17.0269 230.091C17.0269 230.091 17.027 230.091 14.5132 231.729ZM34.0347 259.516L31.6175 261.293C35.6467 266.775 40.2412 272.898 45.3485 279.509L47.7225 277.675L50.0966 275.84C45.0207 269.27 40.455 263.185 36.452 257.74L34.0347 259.516ZM61.8262 295.496L59.4958 297.385C64.0779 303.037 68.9386 308.902 74.0536 314.909L76.3377 312.964L78.6218 311.019C73.5401 305.051 68.7103 299.224 64.1567 293.607L61.8262 295.496ZM91.2947 330.085L89.0612 332.088C94.0364 337.636 99.197 343.246 104.526 348.867L106.703 346.803L108.88 344.739C103.592 339.161 98.4687 333.592 93.5283 328.083L91.2947 330.085ZM122.567 363.041L120.454 365.17C125.813 370.488 131.309 375.772 136.929 380.98L138.968 378.78L141.007 376.58C135.441 371.421 129.994 366.184 124.68 360.911L122.567 363.041ZM155.914 393.899L153.962 396.177C159.748 401.137 165.641 405.982 171.626 410.668L173.476 408.306L175.325 405.944C169.414 401.316 163.59 396.528 157.867 391.622L155.914 393.899ZM191.715 421.856L189.991 424.311C196.286 428.732 202.664 432.944 209.111 436.903L210.681 434.346L212.251 431.79C205.917 427.901 199.641 423.756 193.439 419.401L191.715 421.856ZM230.447 445.529L229.071 448.194C235.971 451.757 242.933 454.99 249.938 457.841L251.069 455.062L252.2 452.283C245.375 449.507 238.577 446.35 231.824 442.863L230.447 445.529ZM272.508 462.481L271.69 465.367C275.413 466.422 279.145 467.356 282.881 468.161L283.513 465.229L284.145 462.296C280.538 461.519 276.931 460.616 273.326 459.595L272.508 462.481ZM283.513 465.229L282.881 468.161C286.997 469.048 291.041 469.77 295.018 470.333L295.439 467.363L295.86 464.393C292.029 463.85 288.125 463.153 284.145 462.296L283.513 465.229ZM319.102 468.829L319.167 471.829C327.541 471.647 335.584 470.71 343.326 469.082L342.708 466.146L342.091 463.211C334.717 464.761 327.044 465.657 319.037 465.83L319.102 468.829ZM365.417 459.056L366.576 461.823C374.049 458.693 381.208 454.89 388.092 450.501L386.479 447.971L384.866 445.442C378.249 449.662 371.392 453.301 364.258 456.289L365.417 459.056ZM405.543 433.768L407.492 436.048C413.503 430.909 419.302 425.321 424.921 419.354L422.736 417.297L420.552 415.241C415.064 421.07 409.42 426.506 403.593 431.488L405.543 433.768ZM438.342 399.242L440.686 401.115C445.601 394.964 450.392 388.54 455.081 381.897L452.63 380.167L450.18 378.437C445.548 384.997 440.83 391.324 435.999 397.369L438.342 399.242ZM465.919 360.412L468.441 362.036C472.711 355.403 476.915 348.617 481.072 341.723L478.503 340.174L475.934 338.625C471.801 345.479 467.629 352.214 463.396 358.788L465.919 360.412ZM490.611 319.635L493.208 321.138C497.175 314.28 501.118 307.359 505.056 300.416L502.447 298.936L499.837 297.456C495.902 304.393 491.968 311.298 488.014 318.133L490.611 319.635ZM514.199 278.192L516.807 279.674C520.734 272.759 524.673 265.863 528.645 259.02L526.05 257.514L523.456 256.008C519.47 262.874 515.521 269.789 511.59 276.711L514.199 278.192ZM538.189 237.009L540.754 238.564C544.893 231.733 549.083 225.002 553.345 218.411L550.825 216.782L548.306 215.154C544.008 221.802 539.786 228.583 535.623 235.455L538.189 237.009ZM564.166 197.011L566.615 198.743C571.236 192.207 575.954 185.872 580.792 179.785L578.443 177.918L576.094 176.052C571.178 182.238 566.393 188.664 561.716 195.279L564.166 197.011ZM593.909 159.808L596.114 161.843C601.52 155.987 607.082 150.465 612.825 145.33L610.826 143.094L608.826 140.858C602.925 146.134 597.227 151.792 591.705 157.773L593.909 159.808ZM629.499 128.266L631.214 130.728C637.665 126.235 644.344 122.23 651.282 118.772L649.944 116.087L648.606 113.402C641.388 116.999 634.458 121.157 627.785 125.804L629.499 128.266ZM672.039 107.231L672.92 110.099C680.203 107.861 687.767 106.197 695.643 105.164L695.253 102.19L694.863 99.215C686.652 100.292 678.759 102.028 671.158 104.364L672.039 107.231ZM718.955 100.982L718.878 103.981C722.753 104.08 726.7 104.323 730.722 104.714L731.013 101.729L731.304 98.7427C727.142 98.3374 723.052 98.086 719.031 97.9831L718.955 100.982ZM731.013 101.729L730.722 104.714C734.903 105.122 738.978 105.692 742.955 106.414L743.49 103.462L744.026 100.51C739.887 99.7588 735.649 99.1658 731.304 98.7427L731.013 101.729ZM767.785 110.035L766.76 112.854C774.605 115.706 782.063 119.168 789.205 123.126L790.659 120.502L792.113 117.878C784.719 113.78 776.974 110.183 768.81 107.215L767.785 110.035ZM811.798 134.149L810.018 136.564C816.671 141.466 823.072 146.755 829.297 152.315L831.295 150.078L833.294 147.84C826.956 142.18 820.408 136.767 813.577 131.734L811.798 134.149ZM849.522 167.45L847.395 169.566C853.288 175.491 859.069 181.555 864.818 187.646L867 185.586L869.182 183.527C863.422 177.425 857.599 171.317 851.649 165.335L849.522 167.45ZM884.296 203.894L882.128 205.967C887.999 212.107 893.912 218.147 899.935 223.945L902.016 221.784L904.096 219.623C898.156 213.904 892.306 207.93 886.465 201.821L884.296 203.894ZM920.803 238.561L918.907 240.886C925.57 246.319 932.455 251.345 939.649 255.799L941.229 253.249L942.808 250.698C935.873 246.404 929.199 241.537 922.699 236.236L920.803 238.561ZM963.653 264.617L962.549 267.407C970.395 270.513 978.626 272.893 987.326 274.392L987.836 271.436L988.345 268.479C980.073 267.054 972.24 264.79 964.757 261.828L963.653 264.617ZM1012.95 273.163L1013.03 276.162C1017.21 276.04 1021.49 275.726 1025.87 275.208L1025.51 272.229L1025.16 269.249C1020.95 269.747 1016.85 270.048 1012.86 270.165L1012.95 273.163ZM1025.51 272.229L1025.87 275.208C1029.78 274.745 1033.68 274.108 1037.54 273.308L1036.93 270.37L1036.33 267.432C1032.62 268.199 1028.9 268.807 1025.16 269.249L1025.51 272.229ZM1059.12 263.907L1060.17 266.716C1067.43 263.997 1074.58 260.744 1081.6 257.033L1080.2 254.381L1078.8 251.729C1071.98 255.331 1065.07 258.476 1058.07 261.097L1059.12 263.907ZM1100.07 242.47L1101.74 244.962C1108.14 240.675 1114.42 236.04 1120.57 231.12L1118.69 228.777L1116.82 226.435C1110.79 231.259 1104.64 235.792 1098.4 239.977L1100.07 242.47ZM1136.24 213.673L1138.28 215.88C1143.97 210.641 1149.53 205.188 1154.95 199.577L1152.79 197.492L1150.64 195.407C1145.29 200.941 1139.81 206.312 1134.21 211.467L1136.24 213.673ZM1168.46 180.445L1170.72 182.421C1175.85 176.563 1180.84 170.6 1185.67 164.584L1183.33 162.705L1180.99 160.826C1176.21 166.781 1171.28 172.679 1166.21 178.468L1168.46 180.445ZM1197.5 144.373L1199.9 146.164C1204.6 139.854 1209.12 133.546 1213.45 127.3L1210.98 125.59L1208.52 123.88C1204.22 130.076 1199.74 136.33 1195.09 142.583L1197.5 144.373ZM1223.9 106.344L1226.42 107.979C1230.8 101.237 1234.93 94.649 1238.81 88.2971L1236.25 86.7336L1233.69 85.1702C1229.84 91.4776 1225.73 98.0182 1221.39 104.71L1223.9 106.344ZM1248.06 66.8031L1250.66 68.2973C1254.88 60.9477 1258.65 54.1351 1261.94 48.0341L1259.3 46.6103L1256.66 45.1865C1253.39 51.244 1249.65 58.0094 1245.46 65.3088L1248.06 66.8031ZM1269.96 26.1308L1272.64 27.4727C1274.31 24.1417 1275.58 21.5261 1276.43 19.7401C1276.86 18.8471 1277.19 18.1615 1277.4 17.6976C1277.51 17.4656 1277.6 17.289 1277.65 17.1697C1277.68 17.11 1277.7 17.0646 1277.71 17.0337C1277.72 17.0183 1277.73 17.0065 1277.73 16.9983C1277.73 16.9943 1277.73 16.9911 1277.74 16.9889C1277.74 16.9877 1277.74 16.9868 1277.74 16.9862C1277.74 16.9859 1277.74 16.9856 1277.74 16.9854C1277.74 16.9853 1277.74 16.9851 1277.74 16.9851C1277.74 16.985 1277.74 16.9849 1275.01 15.7286C1272.29 14.4722 1272.29 14.4722 1272.29 14.4721C1272.29 14.4721 1272.29 14.4721 1272.29 14.4721C1272.29 14.4721 1272.29 14.4722 1272.29 14.4723C1272.29 14.4726 1272.29 14.4731 1272.29 14.4738C1272.29 14.4752 1272.29 14.4776 1272.28 14.4808C1272.28 14.4874 1272.28 14.4976 1272.27 14.5114C1272.26 14.539 1272.24 14.5811 1272.21 14.6375C1272.16 14.7503 1272.08 14.9202 1271.97 15.1454C1271.76 15.5959 1271.45 16.2676 1271.02 17.1464C1270.18 18.904 1268.92 21.4895 1267.27 24.7889L1269.96 26.1308Z" fill="#10B981"/>
</svg>
